<svg xmlns="http://www.w3.org/2000/svg" viewBox="0 0 120 82">
  <rect width="120" height="82" rx="12" fill="#0D1117"/>
  <line x1="22" y1="34" x2="42" y2="16" stroke="white" stroke-width="1.5" stroke-opacity="0.55"/>
  <line x1="42" y1="16" x2="60" y2="10" stroke="#E74C3C" stroke-width="1.8" stroke-opacity="0.8"/>
  <line x1="56" y1="38" x2="72" y2="50" stroke="#E74C3C" stroke-width="1.8" stroke-opacity="0.8"/>
  <line x1="72" y1="50" x2="94" y2="44" stroke="#E74C3C" stroke-width="1.8" stroke-opacity="0.8"/>
  <line x1="94" y1="44" x2="108" y2="60" stroke="#E74C3C" stroke-width="1.8" stroke-opacity="0.8"/>
  <line x1="22" y1="34" x2="40" y2="48" stroke="white" stroke-width="1.5" stroke-opacity="0.55"/>
  <line x1="40" y1="48" x2="56" y2="38" stroke="white" stroke-width="1.5" stroke-opacity="0.55"/>
  <line x1="56" y1="38" x2="76" y2="20" stroke="white" stroke-width="1.5" stroke-opacity="0.55"/>
  <circle cx="22"  cy="34" r="6"   fill="#E74C3C"/>
  <circle cx="42"  cy="16" r="4.5" fill="white"/>
  <circle cx="40"  cy="48" r="4"   fill="white"/>
  <circle cx="60"  cy="10" r="5.5" fill="#E74C3C"/>
  <circle cx="56"  cy="38" r="6"   fill="white"/>
  <circle cx="76"  cy="20" r="4.5" fill="white"/>
  <circle cx="72"  cy="50" r="5.5" fill="#E74C3C"/>
  <circle cx="94"  cy="44" r="4"   fill="white"/>
  <circle cx="108" cy="26" r="5.5" fill="#E74C3C"/>
  <circle cx="108" cy="60" r="4.5" fill="white"/>
</svg>
